HIERARCHY
ROOT Hips
{
	OFFSET 0.000000 0.000000 0.000000
	CHANNELS 6 Xposition Yposition Zposition Xrotation Yrotation Zrotation
	JOINT LeftUpLeg_virtual
	{
		OFFSET 0.000000 0.000000 0.000000
		CHANNELS 3 Xrotation Yrotation Zrotation
		JOINT LeftUpLeg
		{
			OFFSET 15.427100 -6.655098 0.678600
			CHANNELS 3 Xrotation Yrotation Zrotation
			JOINT LeftLeg
			{
				OFFSET 4.081073 -39.591068 13.024000
				CHANNELS 3 Xrotation Yrotation Zrotation
				JOINT LeftFoot
				{
					OFFSET -4.081074 -37.707932 -15.979700
					CHANNELS 3 Xrotation Yrotation Zrotation
					JOINT LeftToeBase
					{
						OFFSET 5.346399 -15.068900 20.645000
						CHANNELS 3 Xrotation Yrotation Zrotation
						JOINT LeftToe_End
						{
							OFFSET 2.754700 0.931300 11.300900
							CHANNELS 3 Xrotation Yrotation Zrotation
							End Site
							{
								OFFSET 0 0 0
							}
						}
					}
				}
			}
		}
	}
	JOINT RightUpLeg_virtual
	{
		OFFSET 0.000000 0.000000 0.000000
		CHANNELS 3 Xrotation Yrotation Zrotation
		JOINT RightUpLeg
		{
			OFFSET -15.569500 -6.655098 0.678600
			CHANNELS 3 Xrotation Yrotation Zrotation
			JOINT RightLeg
			{
				OFFSET -4.081825 -39.591045 13.023800
				CHANNELS 3 Xrotation Yrotation Zrotation
				JOINT RightFoot
				{
					OFFSET 4.081824 -37.707954 -15.979600
					CHANNELS 3 Xrotation Yrotation Zrotation
					JOINT RightToeBase
					{
						OFFSET -5.346400 -15.068900 20.645000
						CHANNELS 3 Xrotation Yrotation Zrotation
						JOINT RightToe_End
						{
							OFFSET -2.754700 0.931300 11.300900
							CHANNELS 3 Xrotation Yrotation Zrotation
							End Site
							{
								OFFSET 0 0 0
							}
						}
					}
				}
			}
		}
	}
	JOINT Spine_virtual
	{
		OFFSET 0.000000 0.000000 0.000000
		CHANNELS 3 Xrotation Yrotation Zrotation
		JOINT Spine
		{
			OFFSET -0.279200 12.230698 -2.892100
			CHANNELS 3 Xrotation Yrotation Zrotation
			JOINT Spine1
			{
				OFFSET -0.232667 10.192268 -1.242267
				CHANNELS 3 Xrotation Yrotation Zrotation
				JOINT Spine1_split
				{
					OFFSET -0.232667 10.192268 -1.242267
					CHANNELS 3 Xrotation Yrotation Zrotation
					JOINT Spine2
					{
						OFFSET -0.232667 10.192268 -1.242267
						CHANNELS 3 Xrotation Yrotation Zrotation
						JOINT Neck_virtual
						{
							OFFSET 0.000000 0.000000 0.000000
							CHANNELS 3 Xrotation Yrotation Zrotation
							JOINT Neck
							{
								OFFSET -0.418800 17.814194 8.416900
								CHANNELS 3 Xrotation Yrotation Zrotation
								JOINT Head
								{
									OFFSET 0.000000 7.031097 3.806800
									CHANNELS 3 Xrotation Yrotation Zrotation
									JOINT HeadTop_End
									{
										OFFSET 0.000000 24.646606 12.978600
										CHANNELS 3 Xrotation Yrotation Zrotation
										End Site
										{
											OFFSET 0 0 0
										}
									}
								}
							}
						}
						JOINT LeftShoulder_virtual
						{
							OFFSET 0.000000 0.000000 0.000000
							CHANNELS 3 Xrotation Yrotation Zrotation
							JOINT LeftShoulder
							{
								OFFSET 8.476499 7.247704 -3.868750
								CHANNELS 3 Xrotation Yrotation Zrotation
								JOINT LeftShoulder_split
								{
									OFFSET 8.476499 7.247704 -3.868750
									CHANNELS 3 Xrotation Yrotation Zrotation
									JOINT LeftArm
									{
										OFFSET 9.308998 -2.777710 0.208600
										CHANNELS 3 Xrotation Yrotation Zrotation
										JOINT LeftForeArm
										{
											OFFSET 29.972298 0.000000 0.000000
											CHANNELS 3 Xrotation Yrotation Zrotation
											JOINT LeftHand
											{
												OFFSET 26.026505 0.000000 0.000000
												CHANNELS 3 Xrotation Yrotation Zrotation
												End Site
												{
													OFFSET 0 0 0
												}
											}
										}
									}
								}
							}
						}
						JOINT RightShoulder_virtual
						{
							OFFSET 0.000000 0.000000 0.000000
							CHANNELS 3 Xrotation Yrotation Zrotation
							JOINT RightShoulder
							{
								OFFSET -7.570500 7.247704 -3.868750
								CHANNELS 3 Xrotation Yrotation Zrotation
								JOINT RightShoulder_split
								{
									OFFSET -7.570500 7.247704 -3.868750
									CHANNELS 3 Xrotation Yrotation Zrotation
									JOINT RightArm
									{
										OFFSET -9.308998 -2.777710 0.208500
										CHANNELS 3 Xrotation Yrotation Zrotation
										JOINT RightForeArm
										{
											OFFSET -29.972300 0.000000 0.000000
											CHANNELS 3 Xrotation Yrotation Zrotation
											JOINT RightHand
											{
												OFFSET -26.026505 0.000000 0.000000
												CHANNELS 3 Xrotation Yrotation Zrotation
												End Site
												{
													OFFSET 0 0 0
												}
											}
										}
									}
								}
							}
						}
					}
				}
			}
		}
	}
}
MOTION
Frames: 6
Frame Time: 0.03333333
-0.167621 75.443321 2.539494 0.000000 0.000000 0.000000 8.606922 -47.789229 11.252535 -59.618986 24.264773 35.336250 43.487046 -15.931648 5.702437 4.668793 -0.431014 -15.982305 -1.949190 -3.138138 9.479570 0.000000 0.000000 0.000000 8.430520 -46.339955 11.912167 -26.174943 0.899702 -22.584772 45.647442 8.719443 -3.912559 -20.749585 3.732390 23.868791 11.173951 4.093695 -0.329285 0.000000 0.000000 0.000000 5.676077 -54.087185 10.235875 12.327239 4.732139 -3.803372 4.926289 8.906801 -4.490525 0.079971 -2.567940 -0.086144 0.000000 0.000000 0.000000 -2.190534 7.909579 -2.317263 -0.511527 12.655213 1.282596 -2.021285 16.694669 -2.656244 0.000000 0.000000 0.000000 -5.006367 7.659239 -2.999407 0.597806 -14.797566 -0.764475 6.602287 0.266308 0.853111 -11.765670 2.569069 -44.042419 -24.716066 -36.425057 -15.857128 0.000000 0.000000 0.000000 -5.211961 7.335351 -1.967247 -3.206926 16.470257 1.482088 -2.138094 0.328787 -1.677082 11.181336 -29.345488 59.545043 -26.090701 45.014287 27.298767 0.000000 0.000000 0.000000 
-0.117628 74.892990 1.773975 0.000000 0.000000 0.000000 8.091071 -48.828312 11.166588 -59.206498 22.888655 35.851550 45.462589 -16.114920 5.926333 4.222818 -0.422715 -17.623107 -1.420274 -2.950452 9.124865 0.000000 0.000000 0.000000 8.171557 -46.576061 11.547082 -26.395707 1.078779 -23.135398 46.076992 8.229629 -3.680513 -19.802569 2.460537 23.244701 14.931400 4.121282 -0.268699 0.000000 0.000000 0.000000 4.780664 -54.392222 9.479771 13.156373 4.394513 -3.980945 5.166866 8.863586 -4.481488 -0.232242 -2.944764 0.284424 0.000000 0.000000 0.000000 -2.277295 7.802983 -2.222506 -0.213638 12.378175 1.363198 -1.278449 17.473483 -3.513687 0.000000 0.000000 0.000000 -5.189570 7.634275 -2.950848 0.271198 -13.273084 -0.853398 7.040886 -0.631706 1.197142 -11.062419 2.796514 -43.348339 -24.616461 -36.747996 -15.871404 0.000000 0.000000 0.000000 -5.255747 7.331755 -1.848841 -3.167379 17.563898 0.888810 -1.003643 2.136596 -2.979363 10.720006 -29.177103 60.140403 -26.515897 45.566948 27.320099 0.000000 0.000000 0.000000 
-0.364003 73.775513 1.284626 0.000000 0.000000 0.000000 8.081954 -51.838503 10.909926 -58.998348 19.804446 37.029758 50.255261 -15.348074 6.528315 3.058322 1.550997 -17.648599 -0.923476 -2.216386 7.309213 0.000000 0.000000 0.000000 7.655388 -48.767858 10.518866 -28.083014 2.974893 -23.989298 47.595849 8.838091 -3.783722 -17.821391 0.864436 25.033413 15.245551 4.177453 -0.427063 0.000000 0.000000 0.000000 4.071823 -55.351908 8.001310 14.012446 3.964993 -3.804479 5.368247 8.770872 -4.501328 -0.495772 -3.718294 0.704848 0.000000 0.000000 0.000000 -2.119132 7.648259 -2.212943 0.304970 11.723993 1.288440 -0.578808 18.299433 -4.759978 0.000000 0.000000 0.000000 -5.127126 7.565970 -2.926597 -0.000111 -11.050932 -0.730723 7.474699 -1.964924 1.218131 -9.915307 3.294425 -42.068877 -24.614518 -36.985454 -16.295761 0.000000 0.000000 0.000000 -5.223527 7.216866 -1.827604 -3.277306 18.947177 0.394795 -0.187027 3.604508 -3.434701 9.657211 -27.498207 59.271671 -25.849165 45.902208 25.818446 0.000000 0.000000 0.000000 
-0.856108 72.396416 1.017078 0.000000 0.000000 0.000000 8.406872 -56.276722 10.259329 -58.455846 16.361085 37.938525 56.156668 -13.412617 6.957873 0.309240 4.870338 -15.048633 -1.228201 -1.216485 4.952577 0.000000 0.000000 0.000000 7.338832 -52.194284 9.091410 -30.668509 6.401298 -24.286782 49.681587 9.868759 -4.254488 -15.717821 -0.785656 27.737364 12.074402 4.186296 -0.362044 0.000000 0.000000 0.000000 4.183224 -57.094992 6.335219 14.695376 3.575071 -3.278856 5.558838 8.672706 -4.505798 -0.176951 -4.207632 1.399995 0.000000 0.000000 0.000000 -1.745835 7.553668 -2.216498 0.806106 10.681963 1.069848 -0.219468 19.180266 -6.237031 0.000000 0.000000 0.000000 -4.802070 7.520106 -2.868613 -0.208848 -8.514623 -0.519219 7.721607 -3.408764 0.732507 -7.954545 4.197486 -40.308105 -24.655586 -37.104709 -17.003969 0.000000 0.000000 0.000000 -5.039142 7.099200 -1.838545 -3.422800 20.615382 0.145264 -0.022863 4.163031 -2.991349 7.722699 -24.827099 57.351971 -24.231828 45.353699 23.047148 0.000000 0.000000 0.000000 
-1.374504 71.116234 1.301598 0.000000 0.000000 0.000000 8.835841 -61.337401 9.018509 -57.289632 13.534623 37.629326 62.378437 -10.596477 6.747170 -4.669158 7.912715 -9.553757 -1.866830 -0.200746 2.817801 0.000000 0.000000 0.000000 7.987629 -56.665496 7.796115 -33.369842 10.415197 -23.029815 51.271710 10.168512 -4.784796 -14.869141 -2.758725 28.640993 8.430883 4.075901 0.067458 0.000000 0.000000 0.000000 5.115751 -60.155894 4.804679 15.041644 3.340312 -2.411645 5.783268 8.653381 -4.409399 0.588010 -4.599433 2.075651 0.000000 0.000000 0.000000 -1.217571 7.571767 -2.133175 1.188255 9.375355 0.621835 -0.288662 20.173466 -7.663667 0.000000 0.000000 0.000000 -4.231356 7.562362 -2.697598 -0.344672 -5.896947 -0.463502 7.874956 -4.166939 0.316752 -4.734082 5.499010 -38.628514 -24.501360 -37.346464 -17.750697 0.000000 0.000000 0.000000 -4.709793 7.090999 -1.793853 -3.516262 22.626610 0.166913 -0.005790 3.787061 -1.584710 4.738808 -21.462782 54.675453 -22.122646 43.417928 19.590154 0.000000 0.000000 0.000000 
-1.717679 70.061188 2.177433 0.000000 0.000000 0.000000 9.696314 -66.405893 7.588390 -56.520696 11.162570 35.465020 69.158015 -8.376897 6.237628 -9.046922 8.147444 -4.598161 -2.810963 0.779790 1.598756 0.000000 0.000000 0.000000 10.581232 -61.839645 7.724151 -36.101166 14.281327 -20.107689 51.808699 9.426865 -5.176733 -15.652357 -4.461226 26.781554 5.835382 3.759551 0.692314 0.000000 0.000000 0.000000 7.316920 -64.770445 4.154673 14.869511 3.253026 -1.258728 6.065498 8.740367 -4.093354 0.664569 -4.614204 2.282735 0.000000 0.000000 0.000000 -0.577065 7.706366 -1.868256 1.471228 7.776951 -0.103530 -0.575687 20.942320 -8.697162 0.000000 0.000000 0.000000 -3.526311 7.687493 -2.332608 -0.407956 -3.339789 -0.673200 7.876408 -4.089874 0.174911 0.173916 6.645685 -37.834713 -23.934786 -38.311907 -18.293618 0.000000 0.000000 0.000000 -4.269140 7.168482 -1.596343 -3.530710 25.004436 0.516970 0.069719 2.649824 0.158405 0.914681 -17.408860 51.735753 -19.735478 39.486570 15.937517 0.000000 0.000000 0.000000 
